<?xml version="1.0" encoding="UTF-8"?>
<svg xmlns="http://www.w3.org/2000/svg" xmlns:xlink="http://www.w3.org/1999/xlink" viewBox="0 0 200 200" width="200px" height="200px">
<g id="surface45738603">
<path style=" stroke:none;fill-rule:nonzero;fill:rgb(97.254902%,59.215689%,6.27451%);fill-opacity:1;" d="M 101 56.457031 C 77.25 56.457031 58 75.707031 58 99.457031 C 58 123.203125 77.25 142.457031 101 142.457031 C 124.75 142.457031 144 123.203125 144 99.457031 C 144 75.707031 124.75 56.457031 101 56.457031 Z M 101 56.457031 "/>
<path style=" stroke:none;fill-rule:nonzero;fill:rgb(12.156863%,12.941177%,16.862746%);fill-opacity:1;" d="M 101 144.457031 C 76.1875 144.457031 56 124.269531 56 99.457031 C 56 74.644531 76.1875 54.457031 101 54.457031 C 125.8125 54.457031 146 74.644531 146 99.457031 C 146 124.269531 125.8125 144.457031 101 144.457031 Z M 101 58.457031 C 78.390625 58.457031 60 76.847656 60 99.457031 C 60 122.0625 78.390625 140.457031 101 140.457031 C 123.609375 140.457031 142 122.0625 142 99.457031 C 142 76.847656 123.609375 58.457031 101 58.457031 Z M 100 50.457031 C 98.894531 50.457031 98 49.5625 98 48.457031 L 98 34.457031 C 98 33.351562 98.894531 32.457031 100 32.457031 C 101.105469 32.457031 102 33.351562 102 34.457031 L 102 48.457031 C 102 49.5625 101.105469 50.457031 100 50.457031 Z M 100 166.457031 C 98.894531 166.457031 98 165.5625 98 164.457031 L 98 150.457031 C 98 149.351562 98.894531 148.457031 100 148.457031 C 101.105469 148.457031 102 149.351562 102 150.457031 L 102 164.457031 C 102 165.5625 101.105469 166.457031 100 166.457031 Z M 166 102.457031 L 152 102.457031 C 150.894531 102.457031 150 101.5625 150 100.457031 C 150 99.351562 150.894531 98.457031 152 98.457031 L 166 98.457031 C 167.105469 98.457031 168 99.351562 168 100.457031 C 168 101.5625 167.105469 102.457031 166 102.457031 Z M 48 102.457031 L 34 102.457031 C 32.894531 102.457031 32 101.5625 32 100.457031 C 32 99.351562 32.894531 98.457031 34 98.457031 L 48 98.457031 C 49.105469 98.457031 50 99.351562 50 100.457031 C 50 101.5625 49.105469 102.457031 48 102.457031 Z M 48 102.457031 "/>
<path style=" stroke:none;fill-rule:nonzero;fill:rgb(12.156863%,12.941177%,16.862746%);fill-opacity:1;" d="M 135.957031 66.042969 C 135.445312 66.042969 134.933594 65.847656 134.542969 65.457031 C 133.761719 64.675781 133.761719 63.410156 134.542969 62.628906 L 144.65625 52.515625 C 145.4375 51.730469 146.703125 51.730469 147.484375 52.515625 C 148.265625 53.296875 148.265625 54.558594 147.484375 55.34375 L 137.371094 65.457031 C 136.976562 65.851562 136.464844 66.042969 135.957031 66.042969 Z M 53.929688 148.070312 C 53.417969 148.070312 52.90625 147.875 52.515625 147.484375 C 51.734375 146.703125 51.734375 145.4375 52.515625 144.65625 L 62.628906 134.539062 C 63.410156 133.757812 64.675781 133.757812 65.457031 134.539062 C 66.238281 135.320312 66.238281 136.585938 65.457031 137.367188 L 55.34375 147.484375 C 54.953125 147.875 54.441406 148.070312 53.929688 148.070312 Z M 146.667969 148.671875 C 146.15625 148.671875 145.644531 148.472656 145.253906 148.085938 L 134.875 137.703125 C 134.09375 136.921875 134.09375 135.65625 134.875 134.875 C 135.65625 134.09375 136.921875 134.09375 137.703125 134.875 L 148.082031 145.257812 C 148.863281 146.039062 148.863281 147.300781 148.082031 148.085938 C 147.691406 148.472656 147.179688 148.671875 146.667969 148.671875 Z M 63.5625 65.5625 C 63.050781 65.5625 62.539062 65.367188 62.148438 64.976562 L 51.917969 54.746094 C 51.136719 53.964844 51.136719 52.699219 51.917969 51.917969 C 52.699219 51.136719 53.964844 51.136719 54.746094 51.917969 L 64.976562 62.148438 C 65.761719 62.933594 65.761719 64.195312 64.976562 64.976562 C 64.585938 65.367188 64.074219 65.5625 63.5625 65.5625 Z M 122.625 74.21875 C 122.402344 74.21875 122.175781 74.144531 121.992188 73.992188 C 121.277344 73.402344 120.539062 72.84375 119.777344 72.3125 C 119.324219 72 119.210938 71.375 119.527344 70.925781 C 119.84375 70.472656 120.464844 70.355469 120.921875 70.675781 C 121.726562 71.234375 122.511719 71.824219 123.265625 72.449219 C 123.691406 72.800781 123.753906 73.433594 123.398438 73.859375 C 123.203125 74.097656 122.914062 74.21875 122.625 74.21875 Z M 101 134.457031 C 81.703125 134.457031 66 118.753906 66 99.457031 C 66 80.15625 81.703125 64.457031 101 64.457031 C 106.796875 64.457031 112.542969 65.902344 117.613281 68.644531 C 118.101562 68.90625 118.28125 69.515625 118.019531 69.996094 C 117.757812 70.484375 117.152344 70.664062 116.660156 70.402344 C 111.882812 67.820312 106.464844 66.457031 100.996094 66.457031 C 82.800781 66.457031 67.996094 81.261719 67.996094 99.457031 C 67.996094 117.652344 82.800781 132.457031 100.996094 132.457031 C 101.550781 132.457031 101.996094 132.902344 101.996094 133.457031 C 101.996094 134.007812 101.550781 134.457031 101 134.457031 Z M 108.15625 133.699219 C 107.695312 133.699219 107.28125 133.378906 107.179688 132.90625 C 107.066406 132.367188 107.410156 131.839844 107.949219 131.722656 C 108.46875 131.613281 108.980469 131.488281 109.488281 131.355469 C 110.023438 131.207031 110.570312 131.53125 110.710938 132.0625 C 110.851562 132.597656 110.535156 133.144531 110.003906 133.285156 C 109.460938 133.429688 108.914062 133.558594 108.367188 133.675781 C 108.296875 133.695312 108.226562 133.699219 108.15625 133.699219 Z M 113.585938 132.050781 C 113.175781 132.050781 112.792969 131.796875 112.644531 131.390625 C 112.457031 130.871094 112.726562 130.296875 113.246094 130.109375 C 114.890625 129.511719 115.527344 129.152344 117.0625 128.289062 L 117.65625 129.105469 L 118.042969 130.03125 C 116.503906 130.902344 115.726562 131.335938 113.925781 131.988281 C 113.816406 132.03125 113.699219 132.050781 113.585938 132.050781 Z M 113.585938 132.050781 "/>
</g>
</svg>
